<svg width="32" height="32" viewBox="0 0 32 32" fill="none" xmlns="http://www.w3.org/2000/svg">
<path fill-rule="evenodd" clip-rule="evenodd" d="M15.9997 3C10.2927 3 5.66634 7.62639 5.66634 13.3333V17.7639L4.33301 20.4306V24.3333H10.9997C10.9997 27.0948 13.2383 29.3333 15.9997 29.3333C18.7611 29.3333 20.9997 27.0948 20.9997 24.3333H27.6663V20.4306L26.333 17.7639V13.3333C26.333 7.62639 21.7066 3 15.9997 3ZM18.9997 24.3333H12.9997C12.9997 25.9902 14.3428 27.3333 15.9997 27.3333C17.6565 27.3333 18.9997 25.9902 18.9997 24.3333ZM7.66634 13.3333C7.66634 8.73096 11.3973 5 15.9997 5C20.602 5 24.333 8.73096 24.333 13.3333V18.2361L25.6663 20.9027V22.3333H6.33301V20.9027L7.66634 18.2361V13.3333Z" fill="black"/>
</svg>
