<svg width="32" height="32" viewBox="0 0 32 32" fill="none" xmlns="http://www.w3.org/2000/svg">
<path fill-rule="evenodd" clip-rule="evenodd" d="M16 3C10.293 3 5.66665 7.62639 5.66665 13.3333V17.7639L4.33331 20.4306V24.3333H11C11 27.0948 13.2386 29.3333 16 29.3333C18.7614 29.3333 21 27.0948 21 24.3333H27.6666V20.4306L26.3333 17.7639V13.3333C26.3333 7.62639 21.7069 3 16 3ZM19 24.3333H13C13 25.9902 14.3431 27.3333 16 27.3333C17.6568 27.3333 19 25.9902 19 24.3333ZM7.66665 13.3333C7.66665 8.73096 11.3976 5 16 5C20.6024 5 24.3333 8.73096 24.3333 13.3333V18.2361L25.6666 20.9027V22.3333H6.33331V20.9027L7.66665 18.2361V13.3333Z" fill="black"/>
</svg>
