<svg width="50" height="50" viewBox="0 0 50 50" fill="none" xmlns="http://www.w3.org/2000/svg">
<path fill-rule="evenodd" clip-rule="evenodd" d="M25.0003 4.6875C20.1103 4.6875 16.1462 8.65165 16.1462 13.5417C16.1462 18.4317 20.1103 22.3958 25.0003 22.3958C29.8903 22.3958 33.8545 18.4317 33.8545 13.5417C33.8545 8.65165 29.8903 4.6875 25.0003 4.6875ZM19.2712 13.5417C19.2712 10.3775 21.8362 7.8125 25.0003 7.8125C28.1645 7.8125 30.7295 10.3775 30.7295 13.5417C30.7295 16.7058 28.1645 19.2708 25.0003 19.2708C21.8362 19.2708 19.2712 16.7058 19.2712 13.5417Z" fill="black"/>
<path fill-rule="evenodd" clip-rule="evenodd" d="M25.0003 26.5625C16.0832 26.5625 8.85449 33.7912 8.85449 42.7083V45.3125H41.1462V42.7083C41.1462 33.7912 33.9174 26.5625 25.0003 26.5625ZM25.0003 29.6875C32.0171 29.6875 37.7375 35.2377 38.0109 42.1875H11.9897C12.2631 35.2377 17.9836 29.6875 25.0003 29.6875Z" fill="black"/>
</svg>
